<svg width="48" height="48" viewBox="0 0 48 48" fill="none" xmlns="http://www.w3.org/2000/svg">
<path fill-rule="evenodd" clip-rule="evenodd" d="M8.69723 33.4554C8.25962 33.914 8.02271 34.4549 8.02271 35.1688C8.02271 35.8799 8.25987 36.4161 8.69807 36.8703C9.16608 37.3555 9.90974 37.7906 10.9674 38.1443C13.0955 38.8559 16.1152 39.1168 19.5291 39.1168C22.9595 39.1168 25.9779 38.8463 28.0997 38.1266C29.1541 37.769 29.895 37.3303 30.3614 36.8423C30.7988 36.3846 31.0356 35.8447 31.0356 35.1315C31.0356 34.4211 30.7984 33.8845 30.3597 33.4293C29.8912 32.9434 29.147 32.5074 28.0892 32.1527C25.9611 31.4392 22.9414 31.176 19.5291 31.176C16.0982 31.176 13.08 31.4479 10.9586 32.169C9.90448 32.5273 9.16366 32.9667 8.69723 33.4554ZM10.154 29.802C12.6811 28.943 16.0412 28.676 19.5291 28.676C22.9948 28.676 26.3533 28.934 28.8839 29.7824C30.1555 30.2087 31.3108 30.8139 32.1595 31.6942C33.0379 32.6054 33.5356 33.7603 33.5356 35.1315C33.5356 36.5 33.0424 37.6553 32.1688 38.5695C31.3241 39.4534 30.1728 40.0634 28.9028 40.4942C26.3757 41.3513 23.0158 41.6168 19.5291 41.6168C16.0633 41.6168 12.7048 41.3613 10.1746 40.5152C8.90315 40.0901 7.74766 39.486 6.8988 38.606C6.02013 37.6952 5.52271 36.5403 5.52271 35.1688C5.52271 33.8002 6.01548 32.6444 6.88863 31.7295C7.73295 30.8447 8.88394 30.2337 10.154 29.802Z" fill="#111029"/>
<path fill-rule="evenodd" clip-rule="evenodd" d="M19.5292 8.88306C15.7035 8.88306 12.6018 11.9837 12.6018 15.8086C12.6018 19.6335 15.7035 22.7341 19.5292 22.7341H19.5845C23.3926 22.7187 26.4689 19.6204 26.4547 15.8132L26.4547 15.8086C26.4547 11.9835 23.3528 8.88306 19.5292 8.88306ZM10.1018 15.8086C10.1018 10.6022 14.3236 6.38306 19.5292 6.38306C24.7323 6.38306 28.9533 10.601 28.9547 15.8059C28.9547 15.8068 28.9547 15.8077 28.9547 15.8086H27.7047L28.9547 15.8039C28.9547 15.8046 28.9547 15.8053 28.9547 15.8059C28.973 20.9948 24.7796 25.2148 19.5917 25.2341L19.587 25.2341H19.5292C14.3236 25.2341 10.1018 21.015 10.1018 15.8086Z" fill="#111029"/>
<path fill-rule="evenodd" clip-rule="evenodd" d="M31.2845 9.50882C31.3963 8.82757 32.0391 8.36588 32.7203 8.47761C36.2362 9.05424 38.9176 12.1037 38.9176 15.7817L38.9176 15.784C38.9109 19.5156 36.1446 22.5965 32.5522 23.1013C31.8685 23.1974 31.2364 22.7211 31.1404 22.0375C31.0443 21.3538 31.5206 20.7217 32.2042 20.6257C34.5814 20.2916 36.4126 18.2495 36.4176 15.7805C36.417 13.3475 34.6426 11.3263 32.3157 10.9446C31.6345 10.8329 31.1728 10.1901 31.2845 9.50882Z" fill="#111029"/>
<path fill-rule="evenodd" clip-rule="evenodd" d="M35.0801 28.8572C35.1818 28.1743 35.8178 27.7032 36.5006 27.8049C38.0142 28.0304 39.4524 28.4262 40.5421 29.1412C41.6945 29.8974 42.4774 31.0359 42.4774 32.5744C42.4774 33.5982 42.1281 34.4853 41.496 35.1996C40.8872 35.8877 40.0658 36.3613 39.1841 36.6962C38.5387 36.9413 37.8168 36.6169 37.5717 35.9715C37.3265 35.3262 37.651 34.6043 38.2963 34.3591C38.9509 34.1105 39.3731 33.8262 39.6238 33.5429C39.8512 33.2858 39.9774 32.9881 39.9774 32.5744C39.9774 32.0247 39.7506 31.612 39.1705 31.2314C38.5277 30.8096 37.5104 30.4829 36.1323 30.2777C35.4495 30.176 34.9784 29.54 35.0801 28.8572Z" fill="#111029"/>
</svg>
