<svg width="48" height="48" viewBox="0 0 48 48" fill="none" xmlns="http://www.w3.org/2000/svg">
<path fill-rule="evenodd" clip-rule="evenodd" d="M35.2065 17.0211L43.4234 17.0211C44.1138 17.0211 44.6734 17.5808 44.6734 18.2711C44.6734 18.9615 44.1138 19.5211 43.4234 19.5211H35.2069C32.8786 19.5227 30.9923 21.4081 30.9921 23.7333C30.9937 26.0599 32.8795 27.9448 35.2072 27.9462H43.4234C44.1138 27.9462 44.6734 28.5059 44.6734 29.1962C44.6734 29.8866 44.1138 30.4462 43.4234 30.4462H35.2065C31.5002 30.444 28.4943 27.4418 28.4921 23.7344C28.4921 20.0258 31.5009 17.0234 35.2065 17.0211Z" fill="#111029"/>
<path fill-rule="evenodd" clip-rule="evenodd" d="M34.2533 23.608C34.2533 22.9177 34.8129 22.358 35.5033 22.358H36.1359C36.8263 22.358 37.3859 22.9177 37.3859 23.608C37.3859 24.2984 36.8263 24.858 36.1359 24.858H35.5033C34.8129 24.858 34.2533 24.2984 34.2533 23.608Z" fill="#111029"/>
<path fill-rule="evenodd" clip-rule="evenodd" d="M15.2279 7.31494C10.0358 7.31494 5.82654 11.5242 5.82654 16.7163V31.2837C5.82654 36.4759 10.0358 40.6851 15.2279 40.6851H32.7717C37.9639 40.6851 42.1731 36.4759 42.1731 31.2837V16.7163C42.1731 11.5242 37.9639 7.31494 32.7717 7.31494H15.2279ZM3.32654 16.7163C3.32654 10.1435 8.65506 4.81494 15.2279 4.81494H32.7717C39.3446 4.81494 44.6731 10.1435 44.6731 16.7163V31.2837C44.6731 37.8566 39.3446 43.1851 32.7717 43.1851H15.2279C8.65506 43.1851 3.32654 37.8566 3.32654 31.2837V16.7163Z" fill="#111029"/>
<path fill-rule="evenodd" clip-rule="evenodd" d="M12.5326 15.275C12.5326 14.5847 13.0922 14.025 13.7826 14.025H24.741C25.4314 14.025 25.991 14.5847 25.991 15.275C25.991 15.9654 25.4314 16.525 24.741 16.525H13.7826C13.0922 16.525 12.5326 15.9654 12.5326 15.275Z" fill="#111029"/>
</svg>
