<svg width="108" height="40" viewBox="0 0 108 40" fill="none" xmlns="http://www.w3.org/2000/svg">
<g clip-path="url(#clip0_2179_21819)">
<path d="M16.4688 27.5594L19.641 17.2801H23.0268L18.0854 32.5312H14.8522L11.6494 22.4655L8.47717 32.5312H5.30493L0.485551 17.2801H3.84081L6.89105 27.5289L9.94129 17.2801H13.3576L16.4688 27.5594ZM31.3973 16.8835C32.8818 16.8835 34.2035 17.2496 35.3626 17.9816C36.5217 18.6933 37.4266 19.6694 38.0773 20.9098C38.7281 22.1299 39.0534 23.472 39.0534 24.9362C39.0534 25.1802 39.0127 25.5665 38.9314 26.0952H26.6084C26.8728 27.3153 27.4422 28.2914 28.3166 29.0235C29.2113 29.7555 30.3399 30.1216 31.7023 30.1216C32.5361 30.1216 33.3291 29.9385 34.0815 29.5725C34.8543 29.2065 35.4236 28.7286 35.7897 28.1389L38.2909 29.603C37.5995 30.6604 36.6844 31.484 35.5456 32.0737C34.4069 32.6431 33.1055 32.9278 31.6413 32.9278C30.0145 32.9278 28.5708 32.5821 27.31 31.8907C26.0696 31.1993 25.1037 30.2436 24.4123 29.0235C23.7412 27.8034 23.4057 26.4308 23.4057 24.9057C23.4057 23.4009 23.7412 22.0384 24.4123 20.8183C25.1037 19.5982 26.0492 18.6425 27.249 17.9511C28.4691 17.2394 29.8519 16.8835 31.3973 16.8835ZM36.0032 23.5636C35.8405 22.3638 35.3423 21.4182 34.5086 20.7268C33.6952 20.0354 32.6581 19.6898 31.3973 19.6898C30.5229 19.6898 29.7197 19.8728 28.9876 20.2388C28.2556 20.5845 27.676 21.0624 27.249 21.6724C26.822 22.2621 26.5983 22.8925 26.5779 23.5636H36.0032ZM50.3822 16.914C51.9073 16.914 53.2494 17.2699 54.4085 17.9816C55.5676 18.673 56.4623 19.6287 57.0927 20.8488C57.7434 22.0689 58.0688 23.4314 58.0688 24.9362C58.0688 26.4409 57.7434 27.8034 57.0927 29.0235C56.4623 30.2232 55.5676 31.179 54.4085 31.8907C53.2494 32.5821 51.9073 32.9278 50.3822 32.9278C49.3248 32.9278 48.308 32.7041 47.3319 32.2567C46.3559 31.8094 45.512 31.1993 44.8002 30.4266V32.5312H41.5975V11.1796H44.8002V19.4457C45.512 18.6527 46.3559 18.0325 47.3319 17.5851C48.308 17.1377 49.3248 16.914 50.3822 16.914ZM50.0162 29.847C50.9312 29.847 51.7548 29.6437 52.4868 29.237C53.2392 28.81 53.8188 28.2202 54.2255 27.4679C54.6525 26.7155 54.866 25.8716 54.866 24.9362C54.866 24.0008 54.6525 23.1569 54.2255 22.4045C53.8188 21.6521 53.2392 21.0725 52.4868 20.6658C51.7548 20.2388 50.9312 20.0253 50.0162 20.0253C49.1011 20.0253 48.2572 20.2388 47.4845 20.6658C46.7321 21.0725 46.1322 21.6521 45.6848 22.4045C45.2578 23.1365 45.0443 23.9703 45.0443 24.9057C45.0443 25.8411 45.2578 26.685 45.6848 27.4374C46.1322 28.1897 46.7321 28.7795 47.4845 29.2065C48.2572 29.6335 49.1011 29.847 50.0162 29.847ZM73.3574 21.1539C74.2521 21.7232 74.9537 22.4553 75.462 23.35C75.9704 24.2448 76.2246 25.2208 76.2246 26.2783C76.2246 27.5187 75.8789 28.6473 75.1875 29.664C74.5165 30.6604 73.5912 31.4433 72.4118 32.0127C71.2324 32.5821 69.9208 32.8668 68.477 32.8668C67.1756 32.8668 65.9656 32.6228 64.8472 32.1347C63.7288 31.6263 62.8137 30.9451 62.102 30.0911C61.4106 29.2167 61.0141 28.2304 60.9124 27.1323L64.4202 26.8578C64.6439 27.6712 65.1319 28.3423 65.8843 28.871C66.657 29.3997 67.5213 29.664 68.477 29.664C69.7378 29.664 70.785 29.3387 71.6187 28.688C72.4525 28.0169 72.8693 27.173 72.8693 26.1563C72.8693 25.1192 72.4525 24.2651 71.6187 23.5941C70.785 22.923 69.7378 22.5875 68.477 22.5875H67.3789L67.4094 19.8118H68.477C69.5954 19.8118 70.5105 19.5372 71.2222 18.9882C71.9543 18.4188 72.3203 17.6969 72.3203 16.8225C72.3203 15.9685 71.9543 15.2567 71.2222 14.6874C70.4902 14.118 69.5649 13.8333 68.4465 13.8333C67.6534 13.8333 66.9112 14.0366 66.2198 14.4433C65.5284 14.8297 65.0404 15.3177 64.7557 15.9075L61.4004 15.6939C61.5631 14.7585 61.9698 13.9248 62.6205 13.1927C63.2916 12.4404 64.1355 11.8608 65.1522 11.4541C66.169 11.0271 67.2671 10.8136 68.4465 10.8136C69.8293 10.8136 71.0595 11.0779 72.1373 11.6066C73.2354 12.115 74.0894 12.8267 74.6995 13.7418C75.3095 14.6569 75.6146 15.6838 75.6146 16.8225C75.6146 17.6969 75.4112 18.5103 75.0045 19.2627C74.6181 19.9948 74.0691 20.6252 73.3574 21.1539Z" fill="#111029"/>
<circle cx="96.6556" cy="11.9071" r="11.4383" fill="white"/>
<mask id="mask0_2179_21819" style="mask-type:alpha" maskUnits="userSpaceOnUse" x="85" y="0" width="24" height="24">
<circle cx="96.6557" cy="11.9071" r="11.4383" fill="#C4C4C4"/>
</mask>
<g mask="url(#mask0_2179_21819)">
<rect x="61.5353" y="-21.1113" width="74.0535" height="64.5855" fill="#111029"/>
</g>
<path d="M95.3251 11.8965L91.5592 6.77979H94.1994L96.6555 10.1159L99.1115 6.77979H101.752L97.9654 11.8965L101.752 17.0133L99.1115 17.0337L96.6555 13.6976L94.1994 17.0337L91.5592 17.0133L95.3251 11.8965Z" fill="white"/>
</g>
<defs>
<clipPath id="clip0_2179_21819">
<rect width="108" height="40" fill="white"/>
</clipPath>
</defs>
</svg>
